<?xml version="1.0" encoding="UTF-8" standalone="no"?>
<!DOCTYPE svg PUBLIC "-//W3C//DTD SVG 1.1//EN"
 "http://www.w3.org/Graphics/SVG/1.1/DTD/svg11.dtd">
<!-- Generated by graphviz version 6.0.1 (20220911.1526)
 -->
<!-- Pages: 1 -->
<svg width="596pt" height="404pt"
 viewBox="0.00 0.00 595.98 404.00" xmlns="http://www.w3.org/2000/svg" xmlns:xlink="http://www.w3.org/1999/xlink">
<g id="graph0" class="graph" transform="scale(1 1) rotate(0) translate(4 400)">
<polygon fill="white" stroke="none" points="-4,4 -4,-400 591.98,-400 591.98,4 -4,4"/>
<!-- [root] aws_instance.UBUNTU (expand) -->
<g id="node1" class="node">
<title>[root] aws_instance.UBUNTU (expand)</title>
<polygon fill="none" stroke="black" points="277,-252 128,-252 128,-216 277,-216 277,-252"/>
<text text-anchor="middle" x="202.5" y="-230.3" font-family="Times,serif" font-size="14.00">aws_instance.UBUNTU</text>
</g>
<!-- [root] aws_internet_gateway.kme&#45;igt (expand) -->
<g id="node2" class="node">
<title>[root] aws_internet_gateway.kme&#45;igt (expand)</title>
<polygon fill="none" stroke="black" points="183,-180 0,-180 0,-144 183,-144 183,-180"/>
<text text-anchor="middle" x="91.5" y="-158.3" font-family="Times,serif" font-size="14.00">aws_internet_gateway.kme&#45;igt</text>
</g>
<!-- [root] aws_instance.UBUNTU (expand)&#45;&gt;[root] aws_internet_gateway.kme&#45;igt (expand) -->
<g id="edge1" class="edge">
<title>[root] aws_instance.UBUNTU (expand)&#45;&gt;[root] aws_internet_gateway.kme&#45;igt (expand)</title>
<path fill="none" stroke="black" d="M175.35,-215.88C160.97,-206.81 143.12,-195.55 127.59,-185.76"/>
<polygon fill="black" stroke="black" points="129.08,-182.56 118.76,-180.19 125.35,-188.48 129.08,-182.56"/>
</g>
<!-- [root] aws_subnet.PUB&#45;2A (expand) -->
<g id="node3" class="node">
<title>[root] aws_subnet.PUB&#45;2A (expand)</title>
<polygon fill="none" stroke="black" points="332,-180 201,-180 201,-144 332,-144 332,-180"/>
<text text-anchor="middle" x="266.5" y="-158.3" font-family="Times,serif" font-size="14.00">aws_subnet.PUB&#45;2A</text>
</g>
<!-- [root] aws_instance.UBUNTU (expand)&#45;&gt;[root] aws_subnet.PUB&#45;2A (expand) -->
<g id="edge2" class="edge">
<title>[root] aws_instance.UBUNTU (expand)&#45;&gt;[root] aws_subnet.PUB&#45;2A (expand)</title>
<path fill="none" stroke="black" d="M218.32,-215.7C226.07,-207.22 235.54,-196.86 244.02,-187.58"/>
<polygon fill="black" stroke="black" points="246.7,-189.85 250.86,-180.1 241.53,-185.12 246.7,-189.85"/>
</g>
<!-- [root] aws_vpc.VPC (expand) -->
<g id="node6" class="node">
<title>[root] aws_vpc.VPC (expand)</title>
<polygon fill="none" stroke="black" points="360.5,-108 266.5,-108 266.5,-72 360.5,-72 360.5,-108"/>
<text text-anchor="middle" x="313.5" y="-86.3" font-family="Times,serif" font-size="14.00">aws_vpc.VPC</text>
</g>
<!-- [root] aws_internet_gateway.kme&#45;igt (expand)&#45;&gt;[root] aws_vpc.VPC (expand) -->
<g id="edge3" class="edge">
<title>[root] aws_internet_gateway.kme&#45;igt (expand)&#45;&gt;[root] aws_vpc.VPC (expand)</title>
<path fill="none" stroke="black" d="M145.52,-143.97C179.17,-133.36 222.39,-119.73 256.56,-108.95"/>
<polygon fill="black" stroke="black" points="257.92,-112.2 266.4,-105.85 255.81,-105.52 257.92,-112.2"/>
</g>
<!-- [root] aws_subnet.PUB&#45;2A (expand)&#45;&gt;[root] aws_vpc.VPC (expand) -->
<g id="edge4" class="edge">
<title>[root] aws_subnet.PUB&#45;2A (expand)&#45;&gt;[root] aws_vpc.VPC (expand)</title>
<path fill="none" stroke="black" d="M278.12,-143.7C283.64,-135.47 290.35,-125.48 296.43,-116.42"/>
<polygon fill="black" stroke="black" points="299.35,-118.36 302.02,-108.1 293.54,-114.46 299.35,-118.36"/>
</g>
<!-- [root] aws_subnet.PUB&#45;2B (expand) -->
<g id="node4" class="node">
<title>[root] aws_subnet.PUB&#45;2B (expand)</title>
<polygon fill="none" stroke="black" points="425.5,-252 295.5,-252 295.5,-216 425.5,-216 425.5,-252"/>
<text text-anchor="middle" x="360.5" y="-230.3" font-family="Times,serif" font-size="14.00">aws_subnet.PUB&#45;2B</text>
</g>
<!-- [root] aws_subnet.PUB&#45;2B (expand)&#45;&gt;[root] aws_vpc.VPC (expand) -->
<g id="edge5" class="edge">
<title>[root] aws_subnet.PUB&#45;2B (expand)&#45;&gt;[root] aws_vpc.VPC (expand)</title>
<path fill="none" stroke="black" d="M357.97,-215.91C354.97,-197.72 349.26,-168.28 340.5,-144 337.24,-134.97 332.79,-125.5 328.44,-117.11"/>
<polygon fill="black" stroke="black" points="331.45,-115.33 323.64,-108.17 325.29,-118.64 331.45,-115.33"/>
</g>
<!-- [root] aws_subnet.PUB&#45;2C (expand) -->
<g id="node5" class="node">
<title>[root] aws_subnet.PUB&#45;2C (expand)</title>
<polygon fill="none" stroke="black" points="518.5,-180 388.5,-180 388.5,-144 518.5,-144 518.5,-180"/>
<text text-anchor="middle" x="453.5" y="-158.3" font-family="Times,serif" font-size="14.00">aws_subnet.PUB&#45;2C</text>
</g>
<!-- [root] aws_subnet.PUB&#45;2C (expand)&#45;&gt;[root] aws_vpc.VPC (expand) -->
<g id="edge6" class="edge">
<title>[root] aws_subnet.PUB&#45;2C (expand)&#45;&gt;[root] aws_vpc.VPC (expand)</title>
<path fill="none" stroke="black" d="M419.25,-143.88C400.44,-134.47 376.92,-122.71 356.83,-112.67"/>
<polygon fill="black" stroke="black" points="358.39,-109.53 347.88,-108.19 355.26,-115.79 358.39,-109.53"/>
</g>
<!-- [root] provider[&quot;registry.terraform.io/hashicorp/aws&quot;] -->
<g id="node7" class="node">
<title>[root] provider[&quot;registry.terraform.io/hashicorp/aws&quot;]</title>
<polygon fill="none" stroke="black" points="313.5,-36 60.96,-18 313.5,0 566.04,-18 313.5,-36"/>
<text text-anchor="middle" x="313.5" y="-14.3" font-family="Times,serif" font-size="14.00">provider[&quot;registry.terraform.io/hashicorp/aws&quot;]</text>
</g>
<!-- [root] aws_vpc.VPC (expand)&#45;&gt;[root] provider[&quot;registry.terraform.io/hashicorp/aws&quot;] -->
<g id="edge7" class="edge">
<title>[root] aws_vpc.VPC (expand)&#45;&gt;[root] provider[&quot;registry.terraform.io/hashicorp/aws&quot;]</title>
<path fill="none" stroke="black" d="M313.5,-71.7C313.5,-63.98 313.5,-54.71 313.5,-46.11"/>
<polygon fill="black" stroke="black" points="317,-46.1 313.5,-36.1 310,-46.1 317,-46.1"/>
</g>
<!-- [root] provider[&quot;registry.terraform.io/hashicorp/aws&quot;] (close) -->
<g id="node8" class="node">
<title>[root] provider[&quot;registry.terraform.io/hashicorp/aws&quot;] (close)</title>
<ellipse fill="none" stroke="black" cx="360.5" cy="-306" rx="227.46" ry="18"/>
<text text-anchor="middle" x="360.5" y="-302.3" font-family="Times,serif" font-size="14.00">[root] provider[&quot;registry.terraform.io/hashicorp/aws&quot;] (close)</text>
</g>
<!-- [root] provider[&quot;registry.terraform.io/hashicorp/aws&quot;] (close)&#45;&gt;[root] aws_instance.UBUNTU (expand) -->
<g id="edge8" class="edge">
<title>[root] provider[&quot;registry.terraform.io/hashicorp/aws&quot;] (close)&#45;&gt;[root] aws_instance.UBUNTU (expand)</title>
<path fill="none" stroke="black" d="M322.66,-288.23C300.99,-278.63 273.6,-266.5 250.44,-256.24"/>
<polygon fill="black" stroke="black" points="251.69,-252.97 241.13,-252.12 248.86,-259.37 251.69,-252.97"/>
</g>
<!-- [root] provider[&quot;registry.terraform.io/hashicorp/aws&quot;] (close)&#45;&gt;[root] aws_subnet.PUB&#45;2B (expand) -->
<g id="edge9" class="edge">
<title>[root] provider[&quot;registry.terraform.io/hashicorp/aws&quot;] (close)&#45;&gt;[root] aws_subnet.PUB&#45;2B (expand)</title>
<path fill="none" stroke="black" d="M360.5,-287.7C360.5,-279.98 360.5,-270.71 360.5,-262.11"/>
<polygon fill="black" stroke="black" points="364,-262.1 360.5,-252.1 357,-262.1 364,-262.1"/>
</g>
<!-- [root] provider[&quot;registry.terraform.io/hashicorp/aws&quot;] (close)&#45;&gt;[root] aws_subnet.PUB&#45;2C (expand) -->
<g id="edge10" class="edge">
<title>[root] provider[&quot;registry.terraform.io/hashicorp/aws&quot;] (close)&#45;&gt;[root] aws_subnet.PUB&#45;2C (expand)</title>
<path fill="none" stroke="black" d="M394.44,-288.08C408.88,-279.23 424.63,-267.07 434.5,-252 446.51,-233.66 451.08,-209.05 452.75,-190.36"/>
<polygon fill="black" stroke="black" points="456.26,-190.34 453.43,-180.13 449.28,-189.88 456.26,-190.34"/>
</g>
<!-- [root] root -->
<g id="node9" class="node">
<title>[root] root</title>
<ellipse fill="none" stroke="black" cx="360.5" cy="-378" rx="47.39" ry="18"/>
<text text-anchor="middle" x="360.5" y="-374.3" font-family="Times,serif" font-size="14.00">[root] root</text>
</g>
<!-- [root] root&#45;&gt;[root] provider[&quot;registry.terraform.io/hashicorp/aws&quot;] (close) -->
<g id="edge11" class="edge">
<title>[root] root&#45;&gt;[root] provider[&quot;registry.terraform.io/hashicorp/aws&quot;] (close)</title>
<path fill="none" stroke="black" d="M360.5,-359.7C360.5,-351.98 360.5,-342.71 360.5,-334.11"/>
<polygon fill="black" stroke="black" points="364,-334.1 360.5,-324.1 357,-334.1 364,-334.1"/>
</g>
</g>
</svg>
